<svg xmlns="http://www.w3.org/2000/svg" viewBox="0 0 512 512" role="img" aria-label="Wopee.io">
  <rect width="512" height="512" rx="112" fill="#7030a0"/>
  <path transform="translate(96 94) scale(2)" fill="#ffcc00" d="M4 0L46 0L50 3L51 5L51 90L63 66L64 61L70 56L91 56L93 57L97 61L99 68L105 78L105 81L110 89L110 6L111 6L111 3L115 0L155 0L159 3L160 5L160 107L159 107L159 114L158 114L156 125L154 127L153 133L151 135L149 144L147 146L146 152L142 160L140 160L139 162L102 162L102 161L99 161L96 158L94 148L92 145L92 141L90 138L90 134L88 131L88 127L86 124L86 120L83 115L77 115L75 117L74 124L73 124L71 134L69 137L69 141L67 144L67 148L65 151L65 155L61 161L59 162L22 162L16 157L16 154L14 152L12 143L10 141L8 132L6 130L6 127L5 127L5 124L2 118L2 114L1 114L1 109L0 109L0 4Z"/>
</svg>
