<svg width="110" height="111" viewBox="0 0 110 111" fill="none" xmlns="http://www.w3.org/2000/svg"><path d="M99.687 71.498V50.626l-19.442-32.99-19.37 32.88-19.368-32.88L9.762 71.497h12.302l19.443-32.532L54.68 61.02 48.51 71.5h12.302l.064-.11.064.11v-.22l19.305-32.312 19.442 32.532z" fill="#85D6C1"/><path d="M17.527 83.02l-4.547 5.327-4.52-5.326h-.118v9.222h1.77v-4.665l2.868 3.465 2.887-3.465v4.665h1.77v-9.22h-.11zM26.143 92.398a4.565 4.565 0 0 1-1.623-.275 3.6 3.6 0 0 1-1.246-.78 3.356 3.356 0 0 1-.798-1.218c-.192-.477-.284-1.008-.284-1.604v-5.5h1.77v5.492c0 .458.073.843.23 1.145.154.303.338.54.558.715a1.9 1.9 0 0 0 .715.367c.256.063.486.1.687.1.202 0 .43-.037.688-.1a1.9 1.9 0 0 0 .715-.368 2.03 2.03 0 0 0 .56-.715c.155-.302.228-.687.228-1.145v-5.49h1.77v5.5c0 .585-.093 1.117-.276 1.603-.183.477-.45.89-.797 1.22-.35.338-.76.595-1.247.778a4.72 4.72 0 0 1-1.65.275zM41.286 90.675v1.568H34.64v-9.23h1.77v7.662h4.876zM49.977 84.57h-2.64v7.673h-1.76V84.57h-2.65v-1.558h7.05v1.558zM55.733 83.02h-1.77v9.213h1.77V83.02zM66.632 84.57h-2.64v7.673h-1.76V84.57h-2.65v-1.558h7.05v1.558zM74.324 92.398a4.566 4.566 0 0 1-1.623-.275 3.6 3.6 0 0 1-1.246-.78 3.354 3.354 0 0 1-.797-1.218c-.192-.477-.284-1.008-.284-1.604v-5.5h1.77v5.492c0 .458.072.843.228 1.145.157.303.34.54.56.715a1.9 1.9 0 0 0 .715.367c.257.063.486.1.688.1.2 0 .43-.037.687-.1a1.9 1.9 0 0 0 .715-.368 2.03 2.03 0 0 0 .56-.715c.155-.302.23-.687.23-1.145v-5.49h1.76v5.5c0 .585-.093 1.117-.276 1.603-.185.477-.45.89-.8 1.22-.347.338-.76.595-1.245.778a4.67 4.67 0 0 1-1.64.275zM86.46 92.243h-3.64v-9.23h3.64c1.32 0 2.402.384 3.245 1.163.45.412.798.907 1.027 1.494a5.34 5.34 0 0 1 .348 1.962c0 .733-.12 1.393-.348 1.97a3.865 3.865 0 0 1-1.027 1.495c-.412.376-.89.66-1.44.86a5.694 5.694 0 0 1-1.805.286zm-1.88-1.568h1.88c.33 0 .66-.037 1-.11a2.2 2.2 0 0 0 .916-.45c.275-.22.495-.53.678-.925.174-.394.266-.907.266-1.55 0-.64-.09-1.154-.266-1.557a2.343 2.343 0 0 0-.678-.926 2.237 2.237 0 0 0-.917-.44c-.34-.074-.66-.11-.98-.11H84.6v6.068h-.02zM96.625 84.57v2.31h4.465v1.604h-4.465v2.164h5.033v1.595h-6.802v-9.23h6.802v1.557h-5.033zM80.227 38.957l-6.06 10.147L87.378 71.5H99.66L80.227 38.956zM28.957 17.635L9.744 50.57V71.5L41.48 17.635H28.957zM67.705 17.635l-19.25 32.99-6.975-11.668-6.17 10.34 13.173 22.2 31.744-53.862H67.705z" fill="#000"/></svg>