<svg width="173" height="34" viewBox="0 0 173 34" fill="none" xmlns="http://www.w3.org/2000/svg">
<g id="znak uzupelniajacy" clip-path="url(#clip0_514_1555)">
<path id="Vector" d="M145.106 29.1164V27.1147H143.108C143.715 27.8368 144.383 28.5065 145.106 29.1164ZM145.054 4.25807C144.276 4.92046 143.563 5.65201 142.922 6.44342H145.054V4.25807ZM168.086 15.9082C167.473 16.4909 166.803 17.0795 166.153 17.6499C165.413 18.3011 164.643 18.9742 163.97 19.6349C163.976 19.6743 163.983 19.7129 163.992 19.7486C164.167 20.437 164.799 20.9585 165.461 20.9636C165.722 20.9636 166.317 20.9636 166.563 20.9636C166.77 20.9675 166.976 20.9255 167.164 20.8405C167.753 20.5637 168.079 20.0392 168.083 19.3618C168.089 18.4417 168.088 17.5057 168.083 16.6009C168.086 16.37 168.086 16.1391 168.086 15.9082ZM154.059 2.95706C154.673 2.3743 155.352 1.77916 156.011 1.20077C156.346 0.909386 156.686 0.609265 157.02 0.311329C156.659 0.288747 156.297 0.275635 155.93 0.275635C155.305 0.275681 154.68 0.310459 154.058 0.379803C154.058 1.00773 154.058 1.63638 154.058 2.25046L154.059 2.95706ZM166.995 4.42125V6.4376H168.938C168.349 5.71278 167.699 5.03826 166.995 4.42125ZM154.088 5.11182C154.094 5.15212 154.102 5.19 154.11 5.22546C154.286 5.91384 154.918 6.43614 155.58 6.44051C155.841 6.44051 156.436 6.44051 156.681 6.44051C156.889 6.4448 157.094 6.40271 157.283 6.3174C157.871 6.04059 158.197 5.51611 158.202 4.83865C158.208 3.92299 158.206 2.99203 158.202 2.09166C158.202 1.85637 158.202 1.62108 158.202 1.38579C157.589 1.96855 156.92 2.55641 156.269 3.12752C155.529 3.77875 154.762 4.45184 154.088 5.11182ZM158.148 28.4426C158.011 27.5597 157.286 26.9566 156.695 26.9471C156.49 26.9471 156.087 26.9471 155.793 26.9471H155.542C155.313 26.9436 155.086 26.9959 154.883 27.0994C154.298 27.4046 154.033 28.1236 154.031 28.7019C154.025 29.6191 154.026 30.5515 154.031 31.454C154.031 31.691 154.031 31.928 154.031 32.165C154.644 31.5822 155.322 30.9864 155.982 30.4087C156.72 29.7589 157.485 29.0858 158.148 28.4426ZM170.102 8.06423H162.282V6.44051H165.328V3.13626C163.699 2.03662 161.884 1.23262 159.968 0.762239V4.8758C159.972 5.60066 159.724 6.30503 159.264 6.87137C158.805 7.4377 158.162 7.83174 157.443 7.98774C157.215 8.03663 156.983 8.06105 156.75 8.06058H156.18C155.925 8.06058 155.662 8.06058 155.497 8.05476C154.89 8.03756 154.302 7.84586 153.805 7.50332C153.369 7.21068 153.012 6.81688 152.767 6.35663C152.522 5.89639 152.396 5.38383 152.399 4.86414V0.646416C150.372 1.07723 148.445 1.87961 146.719 3.01169V6.43541H149.568V8.06204H141.758C140.001 10.868 139.144 14.1305 139.299 17.4234C139.454 20.7162 140.614 23.8865 142.628 26.5202V25.4837H146.771V30.3533C148.475 31.4616 150.373 32.2499 152.368 32.6786V28.5133C152.366 28.1826 152.416 27.8535 152.516 27.5379C152.688 26.9959 153.005 26.5093 153.434 26.1291C153.862 25.7489 154.386 25.489 154.952 25.3766C155.165 25.3346 155.383 25.3139 155.601 25.3147H156.71C157.458 25.3076 158.184 25.5601 158.762 26.0278C159.318 26.4713 159.704 27.0878 159.858 27.7761C159.912 28.0135 159.938 28.2561 159.937 28.4994V32.5788C161.852 32.1126 163.667 31.3133 165.297 30.2186V27.1147H162.822V25.4837H166.965V28.9402C169.901 26.3817 171.825 22.8852 172.399 19.0668C172.973 15.2483 172.16 11.353 170.102 8.06714L170.102 8.06423ZM149.61 19.3975C149.613 19.8153 149.531 20.2295 149.371 20.6162C149.21 21.0029 148.973 21.3544 148.674 21.6505C148.374 21.9466 148.018 22.1814 147.626 22.3413C147.234 22.5012 146.814 22.5831 146.389 22.5822H146.241H145.815C145.561 22.5822 145.297 22.5822 145.135 22.5757C144.528 22.5585 143.94 22.3668 143.442 22.0242C143.006 21.7318 142.65 21.3381 142.405 20.878C142.16 20.4178 142.033 19.9054 142.037 19.3858V13.8277C142.035 13.497 142.085 13.168 142.185 12.8523C142.39 12.2058 142.801 11.6412 143.356 11.2411C143.911 10.841 144.582 10.6265 145.27 10.6291H146.38C147.127 10.6222 147.853 10.8747 148.431 11.3423C148.986 11.7859 149.373 12.4024 149.526 13.0905C149.58 13.3279 149.607 13.5706 149.605 13.8139L149.61 19.3975ZM159.929 22.5866H152.366V20.9636H155.412V12.4313H152.937V10.8017H157.08V20.9607H159.929L159.929 22.5866ZM169.849 19.3975C169.852 19.8152 169.771 20.2294 169.61 20.616C169.449 21.0027 169.213 21.3542 168.913 21.6503C168.614 21.9464 168.258 22.1812 167.866 22.3411C167.474 22.5011 167.054 22.583 166.63 22.5822H166.482H166.055C165.802 22.5822 165.537 22.5822 165.375 22.5757C164.768 22.5585 164.18 22.3668 163.683 22.0242C163.247 21.7317 162.89 21.338 162.645 20.8779C162.4 20.4178 162.274 19.9054 162.277 19.3858V13.8277C162.275 13.497 162.325 13.168 162.425 12.8523C162.63 12.206 163.041 11.6414 163.596 11.2413C164.151 10.8412 164.821 10.6267 165.509 10.6291H166.619C167.367 10.622 168.093 10.8745 168.671 11.3423C169.227 11.7859 169.613 12.4024 169.767 13.0905C169.821 13.3279 169.847 13.5706 169.846 13.8139L169.849 19.3975ZM168.06 13.7585C167.924 12.8756 167.198 12.2725 166.607 12.263C166.402 12.263 165.999 12.263 165.705 12.263H165.454C165.225 12.2595 164.999 12.3118 164.795 12.4153C164.211 12.7205 163.946 13.4395 163.943 14.0178C163.937 14.935 163.939 15.8674 163.939 16.7699C163.939 17.0069 163.939 17.2439 163.939 17.4809C164.553 16.8981 165.232 16.3023 165.892 15.7246C166.632 15.0756 167.397 14.4054 168.06 13.7592V13.7585ZM147.821 13.7585C147.684 12.8756 146.958 12.2725 146.368 12.263C146.163 12.263 145.76 12.263 145.465 12.263H145.214C144.985 12.2595 144.759 12.3118 144.555 12.4153C143.971 12.7205 143.707 13.4395 143.703 14.0178C143.698 14.935 143.699 15.8674 143.703 16.7699C143.703 17.0069 143.703 17.2439 143.703 17.4809C144.317 16.8981 144.995 16.3023 145.655 15.7246C146.393 15.0756 147.159 14.4054 147.825 13.7592L147.821 13.7585ZM158.173 30.5908C157.56 31.1736 156.891 31.7622 156.24 32.3325C155.972 32.5686 155.7 32.8075 155.427 33.0472C155.593 33.0525 155.76 33.0552 155.928 33.0552C156.678 33.0561 157.428 33.0075 158.172 32.9095C158.172 32.3639 158.172 31.8168 158.172 31.2865C158.174 31.0527 158.173 30.8225 158.173 30.5915V30.5908ZM147.846 15.9082C147.233 16.4909 146.564 17.0795 145.914 17.6499C145.174 18.3011 144.404 18.9742 143.73 19.6349C143.736 19.6732 143.743 19.7111 143.752 19.7486C143.928 20.437 144.56 20.9585 145.221 20.9636C145.482 20.9636 146.078 20.9636 146.323 20.9636C146.531 20.9674 146.736 20.9253 146.925 20.8405C147.512 20.5637 147.839 20.0392 147.843 19.3618C147.85 18.4417 147.848 17.5057 147.847 16.6009C147.846 16.3703 147.846 16.1393 147.846 15.9082Z" fill="url(#paint0_linear_514_1555)"/>
<path id="Vector_2" d="M17.3043 10.4774H12.4212V12.6628H15.1032V20.8819H11.7997V23.0673H20.3939V20.8819H17.3043V10.4774ZM61.5232 11.3691C60.5214 10.2312 57.5768 9.75628 55.9217 11.1265V10.4774H53.8287V26.1216H56.0038V22.7482C58.401 24.1395 62.5627 22.8706 62.5634 19.787V13.7336C62.5585 13.2912 62.464 12.8541 62.2854 12.4481C62.1067 12.0421 61.8476 11.6752 61.5232 11.3691ZM57.289 21.0531C56.5861 20.9191 56.0682 20.297 56.0024 19.5772V13.5508C57.4281 11.989 60.3749 12.0677 60.3749 14.0833V19.5823C60.349 21.1842 58.4513 21.2418 57.289 21.0531ZM38.9872 10.2589H37.7398C37.2487 10.2586 36.7625 10.3536 36.3087 10.5383C35.8549 10.7231 35.4425 10.994 35.0951 11.3357C34.7477 11.6773 34.472 12.083 34.2838 12.5296C34.0956 12.9762 33.9986 13.4548 33.9983 13.9383V19.6763C33.9986 20.1598 34.0956 20.6385 34.2838 21.085C34.472 21.5316 34.7477 21.9373 35.0951 22.279C35.4425 22.6206 35.8549 22.8916 36.3087 23.0763C36.7625 23.2611 37.2487 23.356 37.7398 23.3557H38.9872C39.8383 23.3559 40.6641 23.0705 41.3282 22.5465C41.9924 22.0224 42.4553 21.2911 42.6406 20.4732L40.5024 20.0048C40.4123 20.3391 40.2125 20.6347 39.934 20.8455C39.6555 21.0563 39.314 21.1705 38.9628 21.1704H37.7642C37.5551 21.1705 37.3481 21.13 37.1549 21.0513C36.9616 20.9726 36.7861 20.8572 36.6382 20.7117C36.4902 20.5662 36.3729 20.3935 36.2928 20.2033C36.2127 20.0132 36.1714 19.8093 36.1713 19.6035V17.3897H42.7294V13.9383C42.7286 12.9618 42.3339 12.0256 41.6321 11.3356C40.9304 10.6456 39.979 10.2583 38.9872 10.2589ZM40.5564 15.2065H36.1713V14.0068C36.1717 13.5912 36.3397 13.1927 36.6384 12.899C36.9371 12.6053 37.3421 12.4404 37.7642 12.4406H38.9628C39.1719 12.4404 39.3789 12.4808 39.5722 12.5594C39.7654 12.638 39.9411 12.7533 40.089 12.8987C40.237 13.0442 40.3545 13.2169 40.4347 13.407C40.5148 13.5971 40.5562 13.8009 40.5564 14.0068V15.2065ZM27.8642 21.1733H26.6656C26.4565 21.1735 26.2494 21.1331 26.0561 21.0544C25.8628 20.9758 25.6871 20.8604 25.5391 20.7149C25.3911 20.5694 25.2737 20.3966 25.1935 20.2064C25.1134 20.0162 25.0721 19.8123 25.072 19.6064V14.0068C25.0722 13.8009 25.1136 13.5971 25.1938 13.407C25.274 13.2169 25.3914 13.0442 25.5394 12.8987C25.6874 12.7533 25.863 12.638 26.0562 12.5594C26.2495 12.4808 26.4566 12.4404 26.6656 12.4406H27.8642C28.2038 12.4404 28.5347 12.547 28.8083 12.7451C29.082 12.9431 29.2842 13.2221 29.3853 13.5413L31.5243 13.0693C31.3259 12.2672 30.8597 11.5541 30.2004 11.0442C29.5412 10.5343 28.727 10.2572 27.8886 10.2575H26.6412C25.6495 10.2569 24.6981 10.6442 23.9963 11.3342C23.2945 12.0242 22.8998 12.9604 22.899 13.9369V19.6749C22.8993 20.1584 22.9964 20.6371 23.1846 21.0837C23.3728 21.5304 23.6486 21.9361 23.9961 22.2778C24.3436 22.6194 24.756 22.8904 25.2099 23.0751C25.6637 23.2598 26.1501 23.3546 26.6412 23.3543H27.8886C28.7397 23.3546 29.5654 23.0691 30.2295 22.5451C30.8936 22.021 31.3563 21.2897 31.5413 20.4718L29.4031 20.0034C29.3139 20.3384 29.1145 20.6348 28.8361 20.8465C28.5577 21.0581 28.2159 21.173 27.8642 21.1733ZM8.41046 11.3589C7.89256 10.857 6.94185 10.2589 5.37706 10.2589C4.60243 10.2589 3.59031 10.6057 2.79348 11.144V10.4774H0.701172V23.0651H2.87413V13.5741C3.58291 12.7976 4.4145 12.4741 5.29271 12.4741C7.00991 12.4741 7.25259 13.6047 7.25259 14.1131C7.25259 15.6647 7.25259 23.0651 7.25259 23.0651H9.44626C9.44626 23.0651 9.42998 16.1404 9.42998 13.703C9.42586 13.2653 9.33363 12.8328 9.15864 12.4304C8.98364 12.0281 8.72934 11.6638 8.41046 11.3589ZM102.103 10.2596H100.855C99.8636 10.2591 98.9122 10.6464 98.2104 11.3364C97.5086 12.0264 97.1139 12.9626 97.1132 13.939V19.677C97.1139 20.6535 97.5086 21.5897 98.2104 22.2797C98.9122 22.9697 99.8636 23.357 100.855 23.3564H102.103C102.954 23.3567 103.78 23.0712 104.444 22.547C105.108 22.0228 105.571 21.2913 105.755 20.4732L103.617 20.0056C103.527 20.3397 103.327 20.6352 103.049 20.846C102.771 21.0568 102.429 21.1711 102.078 21.1711H100.88C100.671 21.1714 100.464 21.1311 100.27 21.0525C100.077 20.9739 99.9013 20.8586 99.7533 20.7132C99.6053 20.5677 99.4878 20.395 99.4077 20.2048C99.3275 20.0147 99.2862 19.8108 99.2861 19.6049V17.3904H105.844V13.939C105.844 13.4556 105.747 12.9769 105.559 12.5303C105.371 12.0838 105.095 11.6781 104.747 11.3364C104.4 10.9947 103.988 10.7238 103.534 10.539C103.08 10.3543 102.594 10.2594 102.103 10.2596ZM103.671 15.2073H99.2913V14.0068C99.2914 13.8009 99.3327 13.597 99.4128 13.4068C99.493 13.2166 99.6104 13.0438 99.7584 12.8983C99.9064 12.7528 100.082 12.6374 100.275 12.5587C100.469 12.4801 100.676 12.4397 100.885 12.4399H102.083C102.505 12.4407 102.909 12.6061 103.207 12.8998C103.505 13.1936 103.673 13.5917 103.673 14.0068L103.671 15.2073ZM71.2656 10.2596C69.8362 10.1329 68.648 10.6698 67.8179 11.5708L66.4809 10.2596L64.9272 11.7894L66.8856 13.7096C66.8242 14.9297 66.876 20.3057 66.8605 20.9424H64.962V23.0651H72.2866V20.9365H69.0793C69.0793 20.9365 69.0749 15.1315 69.0845 13.9638C69.1866 12.968 69.8295 12.4253 70.9696 12.4865C71.2989 12.4865 71.4343 12.6905 71.4343 12.9309V14.4774H73.6361C73.7226 12.6016 73.747 10.3951 71.2656 10.2596ZM118.879 10.4782V12.6373H122.41L122.427 23.0651H124.625L124.634 12.6227H128.178V10.4709L118.879 10.4782ZM113.189 21.1733H111.99C111.781 21.1735 111.574 21.1331 111.381 21.0545C111.188 20.9759 111.012 20.8606 110.864 20.7151C110.716 20.5697 110.599 20.397 110.519 20.2068C110.439 20.0167 110.397 19.8129 110.397 19.6071V14.0068C110.397 13.8009 110.439 13.5971 110.519 13.4069C110.599 13.2168 110.716 13.044 110.864 12.8985C111.012 12.753 111.188 12.6376 111.381 12.5589C111.574 12.4802 111.781 12.4398 111.99 12.4399H113.189C113.529 12.4398 113.86 12.5466 114.134 12.7448C114.407 12.9429 114.609 13.222 114.711 13.5413L116.85 13.0685C116.651 12.2666 116.184 11.5536 115.525 11.0438C114.866 10.5341 114.052 10.2571 113.213 10.2575H111.966C111.475 10.2571 110.989 10.3519 110.535 10.5366C110.081 10.7214 109.669 10.9923 109.321 11.334C108.974 11.6756 108.698 12.0814 108.51 12.528C108.322 12.9746 108.225 13.4533 108.224 13.9369V19.6749C108.225 20.6513 108.62 21.5875 109.322 22.2775C110.023 22.9675 110.975 23.3548 111.966 23.3543H113.213C114.064 23.3546 114.89 23.0691 115.555 22.5449C116.219 22.0207 116.682 21.2892 116.867 20.4711L114.728 20.0034C114.639 20.3384 114.44 20.6348 114.161 20.8465C113.883 21.0581 113.541 21.173 113.189 21.1733ZM81.0257 10.2596H79.7591C78.7699 10.2591 77.8209 10.6454 77.121 11.3336C76.421 12.0218 76.0273 12.9556 76.0265 13.9296V22.4524C76.0275 23.4263 76.4213 24.3599 77.1212 25.048C77.8212 25.736 78.77 26.1222 79.7591 26.1216H81.0257C81.5156 26.1219 82.0007 26.0272 82.4533 25.8429C82.906 25.6586 83.3174 25.3883 83.6639 25.0474C84.0104 24.7065 84.2854 24.3018 84.473 23.8563C84.6607 23.4108 84.7574 22.9333 84.7576 22.451V13.9281C84.7566 12.9545 84.3629 12.021 83.6631 11.3331C82.9633 10.6452 82.0146 10.2591 81.0257 10.2596ZM78.1766 14.1874C78.1632 13.4007 78.7004 12.4239 79.6319 12.4647H80.9732C81.6176 12.4647 82.427 13.0642 82.3967 13.746L78.1729 19.3551C78.1729 18.0395 78.1729 14.768 78.1766 14.1874ZM82.4677 22.4014C82.4781 23.1947 81.7885 23.9574 80.9229 23.9581C79.8805 23.9982 78.5894 24.0419 78.1921 22.8392L82.4892 17.2775C82.487 18.6171 82.4736 22.0037 82.4707 22.4014H82.4677ZM92.7147 10.4782H87.7518V12.6497H90.4789V23.9581H87.1229V26.1216H95.8532V23.9552H92.714L92.7147 10.4782Z" fill="url(#paint1_linear_514_1555)"/>
</g>
<defs>
<linearGradient id="paint0_linear_514_1555" x1="144.157" y1="28.2583" x2="167.335" y2="4.71784" gradientUnits="userSpaceOnUse">
<stop offset="0.05" stop-color="#0009D8"/>
<stop offset="0.15" stop-color="#0111D9"/>
<stop offset="0.3" stop-color="#0426DA"/>
<stop offset="0.48" stop-color="#0848DD"/>
<stop offset="0.69" stop-color="#0F78E1"/>
<stop offset="0.92" stop-color="#17B4E5"/>
<stop offset="0.95" stop-color="#18BCE6"/>
</linearGradient>
<linearGradient id="paint1_linear_514_1555" x1="19.3676" y1="23.7977" x2="22.1232" y2="1.68069" gradientUnits="userSpaceOnUse">
<stop offset="0.05" stop-color="#0009D8"/>
<stop offset="0.15" stop-color="#0111D9"/>
<stop offset="0.3" stop-color="#0426DA"/>
<stop offset="0.48" stop-color="#0848DD"/>
<stop offset="0.69" stop-color="#0F78E1"/>
<stop offset="0.92" stop-color="#17B4E5"/>
<stop offset="0.95" stop-color="#18BCE6"/>
</linearGradient>
<clipPath id="clip0_514_1555">
<rect width="171.518" height="33.3314" fill="white" transform="translate(0.880859)"/>
</clipPath>
</defs>
</svg>
