<?xml version="1.0" encoding="utf-8"?>
<!-- Generator: Adobe Illustrator 16.0.0, SVG Export Plug-In . SVG Version: 6.00 Build 0)  -->
<!DOCTYPE svg PUBLIC "-//W3C//DTD SVG 1.1//EN" "http://www.w3.org/Graphics/SVG/1.1/DTD/svg11.dtd">
<svg version="1.1" id="Logo" xmlns="http://www.w3.org/2000/svg" xmlns:xlink="http://www.w3.org/1999/xlink" x="0px" y="0px"
	 width="667.709px" height="125.757px" viewBox="62.107 65.809 667.709 125.757"
	 enable-background="new 62.107 65.809 667.709 125.757" xml:space="preserve">
<g>
	<g>
		<path fill="#999999" d="M215.661,130.224h13.375c8.978,0,14.082-3.605,14.082-10.816c0-7.025-5.104-10.543-14.082-10.543h-13.375
			V130.224z M229.848,97.063c18.164,0,28.572,7.93,28.572,21.891c0,14.688-10.408,23.165-28.572,23.165h-14.187v18.015h-16.122
			v-63.07H229.848z"/>
		<path fill="#999999" d="M297.565,130.224c8.881,0,13.982-3.604,13.982-10.816c0-7.028-5.102-10.543-13.982-10.543h-14.891v21.359
			H297.565z M299.101,142.118h-1.535h-14.891v18.013h-16.124V97.063h31.015c18.677,0,29.295,7.93,29.295,21.893
			c0,9.732-4.694,16.764-13.373,20.368l15.207,20.808h-18.264L299.101,142.118z"/>
	</g>
	<rect x="338.215" y="97.063" fill="#999999" width="16.124" height="63.067"/>
	<polygon fill="#999999" points="418.253,160.131 383.663,119.676 383.663,160.131 368.248,160.131 368.248,97.063 382.945,97.063 
		417.644,137.61 417.644,97.063 432.942,97.063 432.942,160.131 	"/>
	<g>
		<path fill="#999999" d="M508.523,107.062l-9.384,10.092c-4.9-4.955-11.941-8.197-18.579-8.197
			c-12.246,0-21.731,8.379-21.731,19.375s9.485,19.464,21.731,19.464c6.433,0,13.479-2.887,18.579-7.393l9.482,9.101
			c-7.545,6.852-18.468,11.263-28.876,11.263c-21.328,0-37.446-13.961-37.446-32.257c0-18.204,16.423-31.897,38.06-31.897
			C490.673,96.61,501.475,100.668,508.523,107.062"/>
	</g>
	<rect x="516.088" y="97.063" fill="#999999" width="16.121" height="63.067"/>
	<g>
		<path fill="#999999" d="M562.248,130.224h13.367c8.982,0,14.091-3.605,14.091-10.816c0-7.025-5.107-10.543-14.091-10.543h-13.367
			V130.224z M576.436,97.063c18.161,0,28.568,7.93,28.568,21.891c0,14.688-10.407,23.165-28.568,23.165h-14.188v18.015H546.13
			v-63.07H576.436z"/>
	</g>
	<path fill="#999999" d="M638.429,111.928l-11.321,24.512h22.553L638.429,111.928z M621.801,147.886l-5.613,12.247H599.55
		l31.023-63.069h16.634l30.514,63.069h-17.243l-5.613-12.247H621.801z"/>
	<polygon fill="#999999" points="729.816,147.696 729.816,160.133 683.076,160.133 683.076,97.063 699.208,97.063 699.208,147.696 	
		"/>
</g>
<path fill="#999999" d="M77.894,134.169V81.141h74.96v53.028h-38.706v34.777L77.894,134.169z M62.107,65.809v74.521l53.155,51.235
	l53.381-51.235V65.809H62.107z"/>
<rect y="1" fill="none" width="788" height="255"/>
</svg>
